<?xml version="1.0" encoding="utf-8"?>
<!-- Generator: Adobe Illustrator 26.1.0, SVG Export Plug-In . SVG Version: 6.00 Build 0)  -->
<svg version="1.1" id="Layer_1" xmlns="http://www.w3.org/2000/svg" xmlns:xlink="http://www.w3.org/1999/xlink" x="0px" y="0px"
	 viewBox="0 0 64 64" style="enable-background:new 0 0 64 64;" xml:space="preserve">
<style type="text/css">
	.st0{fill:#FFFFFF;}
	.st1{fill-rule:evenodd;clip-rule:evenodd;fill:#FFFFFF;}
</style>
<g>
	<path class="st0" d="M1.57,62.5l4.37-16.32c-2.48-4.47-3.78-9.47-3.78-14.55C2.17,15.02,15.68,1.5,32.3,1.5
		c16.61,0,30.13,13.52,30.13,30.13c0,16.61-13.52,30.13-30.13,30.13c-4.99,0-9.91-1.26-14.32-3.65L1.57,62.5z M18.79,51.99
		l1.03,0.62c3.79,2.26,8.11,3.45,12.47,3.45c13.47,0,24.43-10.96,24.43-24.43S45.77,7.19,32.3,7.19
		c-13.47,0-24.43,10.96-24.43,24.43c0,4.45,1.24,8.83,3.57,12.67l0.63,1.04l-2.44,9.11L18.79,51.99z"/>
	<path class="st1" d="M43.5,35.82c-1.24-0.74-2.85-1.57-4.31-0.97c-1.12,0.46-1.84,2.21-2.56,3.11c-0.37,0.46-0.82,0.53-1.39,0.3
		c-4.21-1.68-7.43-4.48-9.75-8.35c-0.39-0.6-0.32-1.08,0.15-1.63c0.7-0.83,1.58-1.76,1.77-2.88c0.19-1.11-0.33-2.41-0.79-3.4
		c-0.59-1.27-1.25-3.07-2.51-3.79c-1.17-0.66-2.7-0.29-3.74,0.56c-1.79,1.46-2.66,3.75-2.63,6.02c0.01,0.64,0.09,1.29,0.24,1.91
		c0.36,1.5,1.05,2.89,1.83,4.22c0.59,1,1.22,1.97,1.91,2.91c2.25,3.06,5.05,5.71,8.29,7.7c1.62,0.99,3.36,1.86,5.17,2.46
		c2.03,0.67,3.83,1.37,6.02,0.95c2.29-0.43,4.55-1.85,5.46-4.06c0.27-0.65,0.4-1.38,0.25-2.07C46.59,37.36,44.66,36.51,43.5,35.82z"
		/>
</g>
</svg>
